<svg width="30" height="28" viewBox="0 0 30 28" fill="none" xmlns="http://www.w3.org/2000/svg">
<path d="M29.1087 10.5769C29.0309 10.4602 28.9531 10.3435 28.8364 10.3046C28.9531 10.149 29.0309 9.91565 28.992 9.72116C28.9531 8.8654 28.5641 7.11498 26.6581 4.93669C24.7132 2.75839 23.0017 2.17492 22.1848 2.01932C22.0292 1.98042 21.9125 2.01932 21.7958 2.01932C21.7569 1.82483 21.6402 1.63034 21.4846 1.51365C20.8234 0.969072 19.2674 0.113312 16.3501 0.113312C13.4327 0.113312 11.8768 1.00797 11.1766 1.51365C10.8265 1.78593 10.7098 2.21381 10.9043 2.6028L11.5267 4.04203L15.4165 13.4554C15.4165 13.4943 15.4554 13.5332 15.4943 13.5721C15.4165 13.5332 15.2998 13.5332 15.1831 13.5332L4.95291 14.4278L3.39698 14.5445C2.9691 14.5834 2.61902 14.8946 2.54122 15.3225C2.38563 16.1783 2.34673 17.9676 3.74707 20.496C5.1085 23.0632 6.66443 23.9968 7.44239 24.3469C7.55909 24.3858 7.67578 24.4247 7.83138 24.4247C7.83138 24.4247 7.83138 24.4247 7.87027 24.4247C7.87027 24.6192 7.94807 24.8137 8.06476 25.0082C8.60934 25.6694 9.89298 26.9142 12.7325 27.5754C13.7439 27.8088 14.5997 27.8866 15.3387 27.8866C16.6613 27.8866 17.5559 27.6143 18.0616 27.3809C18.1783 27.342 18.295 27.2253 18.3728 27.1475C18.5284 27.2642 18.7229 27.3809 18.9174 27.3809C18.9952 27.3809 19.073 27.3809 19.1507 27.3809C20.0843 27.3809 21.7569 27.1087 23.8963 25.5916C26.2691 23.919 27.0471 22.2853 27.3194 21.4684C27.3583 21.3517 27.3583 21.1961 27.3583 21.0794C27.5528 21.0405 27.7472 20.9627 27.9028 20.8071C28.5252 20.1848 29.5755 18.7455 29.8866 15.8671C30.2756 12.9886 29.5755 11.316 29.1087 10.5769ZM21.8347 2.87508C21.8736 2.79729 21.9514 2.75839 21.9903 2.79729C22.7294 2.95288 24.2853 3.45856 26.0357 5.44236C27.7861 7.42617 28.1362 8.9821 28.1751 9.76006C28.1751 9.83786 28.1362 9.87675 28.0584 9.91565L27.4361 10.149C27.3583 9.37108 26.9693 7.89295 25.3745 6.06473C23.7796 4.23652 22.3015 3.69194 21.5235 3.53635L21.8347 2.87508ZM27.475 15.5948C27.2027 17.9676 26.308 19.0956 25.919 19.4846C25.8801 19.5235 25.8412 19.5235 25.8023 19.4846L21.2513 16.8395L17.2447 14.3111L21.7958 12.7941L26.7359 11.3938C26.7748 11.3938 26.8137 11.3938 26.8526 11.4327C27.1638 11.8995 27.7472 13.222 27.475 15.5948ZM21.2901 4.27542C21.7958 4.35321 23.1962 4.78109 24.8299 6.60931C26.4247 8.39862 26.6581 9.83786 26.697 10.3435C26.697 10.3824 26.6581 10.4213 26.6192 10.4213L21.6013 12.0551L17.0502 13.3387L18.9563 8.9432L21.2124 4.31432C21.2124 4.27542 21.2512 4.27542 21.2901 4.27542ZM11.5656 2.33051C11.5267 2.25271 11.5656 2.17492 11.6045 2.13602C12.2269 1.66924 13.6272 0.891275 16.2723 0.891275C18.9174 0.891275 20.3177 1.66924 20.9012 2.13602C20.9401 2.17492 20.979 2.25271 20.9401 2.33051L20.6678 2.95288C20.0065 2.4861 18.684 1.78593 16.2723 1.78593C13.8606 1.78593 12.4603 2.4861 11.8379 2.95288L11.5656 2.33051ZM12.188 3.76974C12.188 3.73084 12.188 3.69194 12.2269 3.65305C12.6547 3.34186 13.8995 2.5639 16.3112 2.5639C18.6451 2.5639 19.8509 3.22517 20.3566 3.65305C20.3955 3.69194 20.3955 3.73084 20.3955 3.76974L18.295 8.63201L16.1167 13.1442L12.188 3.76974ZM16.1945 14.0389C16.1945 14.0778 16.1945 14.0778 16.1945 14.1167C16.1945 14.1167 16.1556 14.1167 16.1167 14.1556C16.0778 14.1556 16.0778 14.1556 16.0389 14.1167C16.0389 14.0778 16.0389 14.0389 16 14L15.9611 13.9611C16 13.9611 16.0778 14 16.1167 14C16.1556 14.0389 16.1556 14.0389 16.1945 14.0389ZM15.7277 15.2058L16.7002 19.9125L17.517 24.9692C17.517 25.0081 17.517 25.047 17.4781 25.0859C17.0113 25.3193 15.611 25.7472 13.2771 25.2026C10.9432 24.6581 9.93188 23.6467 9.58179 23.2188C9.5429 23.1799 9.5429 23.141 9.58179 23.1021L12.7325 18.8622L15.7277 15.2058ZM7.94807 23.6078C7.90917 23.6467 7.83138 23.6856 7.75358 23.6467C7.209 23.4133 5.73087 22.5576 4.40833 20.107C3.16359 17.7731 3.16359 16.1783 3.31919 15.4392C3.31919 15.3614 3.39698 15.3225 3.47478 15.3225L4.17495 15.2836C4.05825 16.0616 4.09715 17.6175 5.2252 19.718C6.39214 21.8574 7.63688 22.7132 8.37595 23.0632L7.94807 23.6078ZM5.88647 19.3679C4.75842 17.2674 4.83621 15.8282 4.91401 15.2836C4.91401 15.2447 4.95291 15.2058 4.99181 15.2058L15.1831 14.35C15.1442 14.3889 15.1053 14.3889 15.1053 14.4278L12.1491 18.3955L8.92052 22.402C8.88163 22.4409 8.84273 22.4409 8.80383 22.4409C8.29815 22.2075 7.05341 21.4684 5.88647 19.3679ZM17.7115 26.6808C17.1669 26.9531 15.5721 27.4587 12.8492 26.8364C10.2431 26.214 9.07612 25.1248 8.60934 24.5414C8.57044 24.5025 8.57044 24.4247 8.60934 24.3469L9.03722 23.8023C9.5429 24.4247 10.7098 25.3971 13.0437 25.9417C13.9384 26.1362 14.6775 26.214 15.3387 26.214C16.4279 26.214 17.1669 25.9806 17.6337 25.7861L17.7504 26.4863C17.8282 26.603 17.7893 26.6808 17.7115 26.6808ZM18.5284 24.9304L17.4781 19.7569L16.7002 15.0891L20.8623 17.5008L25.18 20.2626C25.2189 20.3015 25.2189 20.3404 25.2189 20.3793C25.0633 20.8849 24.4798 22.2075 22.496 23.6078C20.5122 24.9693 19.1119 25.0859 18.5673 25.047C18.5673 25.0082 18.5284 25.0081 18.5284 24.9304ZM23.4684 24.9692C21.2901 26.4863 19.6953 26.6419 18.9563 26.603C18.8785 26.603 18.8396 26.5641 18.8007 26.4863L18.684 25.7861C18.7229 25.7861 18.7229 25.7861 18.7618 25.7861C19.5786 25.7861 21.0568 25.5527 22.9628 24.2302C24.9466 22.8299 25.6856 21.4684 25.919 20.7293L26.5025 21.0794C26.5803 21.1183 26.5803 21.1961 26.5803 21.2739C26.4247 21.8574 25.7634 23.3744 23.4684 24.9692ZM29.1476 15.7893C28.8364 18.4344 27.9028 19.718 27.3583 20.2626C27.3194 20.3015 27.2416 20.3404 27.1638 20.3015L26.5803 19.9514C27.1249 19.3679 27.9806 18.0843 28.2529 15.7115C28.5252 13.2998 27.9806 11.8606 27.5917 11.1604L28.2529 10.9659C28.3307 10.927 28.4085 10.9659 28.4474 11.0437C28.8364 11.6661 29.4588 13.1442 29.1476 15.7893Z" fill="#A4ACAD"/>
<path d="M17.9449 3.38077C17.1669 3.38077 16.5446 4.00314 16.5446 4.7811C16.5446 5.55907 17.1669 6.18144 17.9449 6.18144C18.7229 6.18144 19.3452 5.55907 19.3452 4.7811C19.3452 4.00314 18.7229 3.38077 17.9449 3.38077ZM17.9449 5.44237C17.5948 5.44237 17.3225 5.17008 17.3225 4.82C17.3225 4.46992 17.5948 4.19763 17.9449 4.19763C18.295 4.19763 18.5673 4.46992 18.5673 4.82C18.5673 5.17008 18.295 5.44237 17.9449 5.44237Z" fill="#A4ACAD"/>
<path d="M16.1167 6.60931C15.3776 6.60931 14.7942 7.19279 14.7942 7.93185C14.7942 8.67092 15.3776 9.25439 16.1167 9.25439C16.8558 9.25439 17.4392 8.67092 17.4392 7.93185C17.4392 7.19279 16.8558 6.60931 16.1167 6.60931ZM16.0778 8.47643C15.7666 8.47643 15.5332 8.24304 15.5332 7.93185C15.5332 7.62067 15.7666 7.38728 16.0778 7.38728C16.389 7.38728 16.6224 7.62067 16.6224 7.93185C16.6224 8.24304 16.389 8.47643 16.0778 8.47643Z" fill="#A4ACAD"/>
<path d="M23.0406 6.57042C22.6127 6.10364 21.8736 6.06474 21.4069 6.49262C21.1735 6.68711 21.0568 6.9983 21.0179 7.27058C21.0179 7.58177 21.0957 7.89295 21.2902 8.08744C21.4846 8.35973 21.7958 8.51532 22.107 8.51532C22.1459 8.51532 22.1459 8.51532 22.1848 8.51532C22.4571 8.51532 22.7294 8.39863 22.9628 8.20414C23.4296 7.77626 23.4685 7.03719 23.0406 6.57042ZM22.3793 7.69846C22.3015 7.77626 22.2237 7.81516 22.107 7.77626C21.9903 7.77626 21.9125 7.73736 21.8347 7.65956C21.7569 7.58177 21.718 7.50397 21.7569 7.38728C21.7958 7.27058 21.8347 7.15389 21.9125 7.11499C21.9903 7.03719 22.0681 7.03719 22.1459 7.03719C22.2626 7.03719 22.3404 7.07609 22.4182 7.15389C22.5738 7.30948 22.5349 7.54287 22.3793 7.69846Z" fill="#A4ACAD"/>
<path d="M26.1913 16.1005C25.919 15.8282 25.6079 15.6337 25.2578 15.5948C24.5187 15.517 23.8185 16.0616 23.7407 16.8006C23.6629 17.5397 24.2075 18.2399 24.9466 18.3177C24.9855 18.3177 25.0633 18.3177 25.1022 18.3177C25.8023 18.3177 26.3858 17.812 26.4636 17.1118C26.5025 16.7617 26.3858 16.3728 26.1913 16.1005ZM25.0244 17.5786C24.6743 17.5397 24.4409 17.2285 24.4798 16.9173C24.5187 16.5672 24.8299 16.3339 25.1411 16.3728C25.2967 16.3728 25.4523 16.4894 25.5301 16.6061C25.6079 16.7228 25.6856 16.8784 25.6856 17.034C25.6467 17.3841 25.3356 17.6175 25.0244 17.5786Z" fill="#A4ACAD"/>
<path d="M26.5414 12.5996C26.3858 12.3662 26.1135 12.2106 25.8023 12.1717C25.4912 12.1328 25.18 12.2106 24.9466 12.4051C24.7132 12.5996 24.5576 12.8719 24.5187 13.1831C24.4798 13.4943 24.5576 13.8055 24.7521 14.0389C24.9466 14.2722 25.2189 14.4278 25.53 14.4667C25.5689 14.4667 25.6078 14.4667 25.6467 14.4667C25.919 14.4667 26.1524 14.3889 26.3469 14.2333C26.5803 14.0389 26.7359 13.7666 26.7748 13.4554C26.8137 13.1442 26.7359 12.833 26.5414 12.5996ZM25.8801 13.611C25.8023 13.6888 25.6856 13.6888 25.6078 13.6888C25.4912 13.6888 25.4134 13.611 25.3745 13.5332C25.2967 13.4554 25.2967 13.3387 25.2967 13.2609C25.2967 13.1442 25.3745 13.0664 25.4523 13.0275C25.53 12.9497 25.6467 12.9497 25.7245 12.9497C25.8412 12.9497 25.919 13.0275 25.9579 13.1053C25.9968 13.1831 26.0357 13.2998 26.0357 13.3776C26.0357 13.4554 25.9579 13.5721 25.8801 13.611Z" fill="#A4ACAD"/>
<path d="M20.7067 18.3177C20.4733 18.0065 20.201 17.812 19.8509 17.7731C19.5008 17.6953 19.1508 17.7731 18.8396 18.0065C18.2561 18.4344 18.1005 19.2512 18.5284 19.8736C18.7618 20.2237 19.1897 20.4182 19.6175 20.4182C19.8898 20.4182 20.1621 20.3404 20.3955 20.1848C20.7067 19.9903 20.9012 19.6791 20.9401 19.329C21.0179 18.9789 20.9401 18.6288 20.7067 18.3177ZM20.1621 19.2123C20.1232 19.3679 20.0454 19.4846 19.9287 19.5624C19.6953 19.7569 19.3453 19.6791 19.1508 19.4068C18.9952 19.1734 19.0341 18.8233 19.3064 18.6288C19.5397 18.4733 19.8898 18.5122 20.0843 18.7844C20.1621 18.9011 20.201 19.0567 20.1621 19.2123Z" fill="#A4ACAD"/>
<path d="M15.1831 21.7407C14.8719 21.6629 14.5608 21.7018 14.3274 21.8963C14.0551 22.0519 13.8995 22.3242 13.8217 22.5965C13.6272 23.2188 14.0162 23.8412 14.6386 23.9968C14.7164 24.0357 14.833 24.0357 14.9108 24.0357C15.4165 24.0357 15.9222 23.6856 16.0389 23.141C16.1945 22.5187 15.8055 21.8963 15.1831 21.7407ZM15.222 22.9854C15.1831 23.1799 14.9886 23.2966 14.7553 23.2577C14.6386 23.2188 14.5608 23.1799 14.5219 23.1021C14.483 23.0243 14.5219 22.9077 14.5219 22.791C14.5608 22.6743 14.5997 22.5965 14.6775 22.5576C14.7553 22.5187 14.7942 22.5187 14.8719 22.5187C14.9108 22.5187 14.9497 22.5187 14.9497 22.5187C15.1442 22.5576 15.2609 22.7521 15.222 22.9854Z" fill="#A4ACAD"/>
<path d="M8.29816 16.1783C7.94807 15.517 7.09231 15.2447 6.43104 15.6337C5.76978 15.9838 5.49749 16.8395 5.88647 17.5008C6.11986 17.9676 6.62554 18.2399 7.09231 18.2399C7.3257 18.2399 7.52019 18.201 7.75358 18.0843C8.41485 17.6953 8.64824 16.8395 8.29816 16.1783ZM7.3646 17.3841C7.05342 17.5397 6.70333 17.423 6.54774 17.1507C6.39215 16.8395 6.50884 16.4895 6.78113 16.3339C7.09231 16.1783 7.4424 16.295 7.59799 16.5672C7.75358 16.8395 7.63689 17.2285 7.3646 17.3841Z" fill="#A4ACAD"/>
<path d="M11.8768 16.3339C11.7212 16.0227 11.41 15.7893 11.0988 15.6726C10.7487 15.5559 10.3987 15.5948 10.0875 15.7893C9.77629 15.9449 9.5429 16.2561 9.42621 16.5672C9.30951 16.9173 9.34841 17.2674 9.5429 17.5786C9.69849 17.9287 9.97078 18.1621 10.3209 18.2399C10.4376 18.2788 10.5932 18.2788 10.7098 18.2788C10.9432 18.2788 11.1377 18.2399 11.3322 18.1232C11.6434 17.9676 11.8768 17.6564 11.9935 17.3452C12.1102 16.9951 12.0713 16.645 11.8768 16.3339ZM10.9432 17.4619C10.8265 17.5397 10.6709 17.5397 10.5154 17.5008C10.3598 17.4619 10.2431 17.3452 10.2042 17.2285C10.1653 17.1118 10.1264 16.9562 10.1653 16.8006C10.2042 16.645 10.3209 16.5283 10.4376 16.4895C10.5543 16.4117 10.7098 16.4117 10.8654 16.4506C11.021 16.4895 11.1377 16.6061 11.1766 16.7228C11.3322 16.9951 11.2155 17.3452 10.9432 17.4619Z" fill="#A4ACAD"/>
<path d="M13.316 10.8881L7.05342 2.79729L6.08096 1.55255C5.80867 1.20247 5.38079 1.08577 4.99181 1.28026C4.21385 1.63035 2.69682 2.5639 1.29648 5.09228C-0.10385 7.62067 -0.0649519 9.44888 0.0517427 10.3046C0.129539 10.7325 0.440725 11.0437 0.868605 11.0826L2.42453 11.1993L12.5381 12.2884C12.6159 12.2884 12.6548 12.2884 12.6548 12.2884C12.9659 12.2884 13.2382 12.1329 13.3938 11.8606C13.5494 11.5494 13.5494 11.1993 13.316 10.8881ZM1.64657 10.3824L0.985299 10.3046C0.907503 10.3046 0.868605 10.2268 0.829706 10.1879C0.713012 9.44888 0.713012 7.81516 1.95775 5.48127C3.24139 3.14737 4.60283 2.29161 5.2641 2.01933C5.3419 1.98043 5.41969 2.01933 5.45859 2.05823L5.88647 2.6028C5.14741 2.95288 3.90266 3.80864 2.73572 5.90915C1.56877 8.04855 1.52987 9.56558 1.64657 10.3824ZM12.7715 11.4716C12.7326 11.5105 12.7326 11.5105 12.6937 11.5105L2.58012 10.4213C2.50233 10.4213 2.46343 10.3824 2.46343 10.3435C2.38563 9.79896 2.30784 8.35973 3.47478 6.25923C4.64173 4.15873 5.88647 3.45856 6.35325 3.22517C6.39215 3.22517 6.43105 3.22517 6.46994 3.26407L12.7715 11.3549C12.8103 11.3938 12.8103 11.4327 12.7715 11.4716Z" fill="#A4ACAD"/>
<path d="M7.5202 5.48127C7.4035 5.13118 7.17011 4.82 6.85893 4.66441C6.54774 4.46992 6.15876 4.43102 5.80868 4.54771C5.45859 4.66441 5.14741 4.8978 4.99181 5.20898C4.79732 5.52017 4.75842 5.90915 4.87512 6.25923C4.99181 6.60932 5.2252 6.9205 5.53639 7.11499C5.73088 7.23169 5.96427 7.27059 6.19766 7.27059C6.70333 7.27059 7.17011 6.9983 7.4035 6.53152C7.59799 6.22033 7.63689 5.83135 7.5202 5.48127ZM6.70333 6.18144C6.54774 6.49262 6.15876 6.57042 5.88647 6.41482C5.73088 6.33703 5.65308 6.22033 5.61419 6.06474C5.57529 5.90915 5.61419 5.75356 5.69198 5.59796C5.76978 5.44237 5.88647 5.36457 6.04207 5.32568C6.08096 5.32568 6.15876 5.28678 6.19766 5.28678C6.31435 5.28678 6.39215 5.32568 6.46995 5.36457C6.62554 5.44237 6.70333 5.55906 6.74223 5.71466C6.78113 5.87025 6.78113 6.02584 6.70333 6.18144Z" fill="#A4ACAD"/>
<path d="M8.14257 8.24304C7.598 7.85405 6.89783 8.04854 6.58664 8.63202C6.43105 8.9043 6.39215 9.21549 6.50885 9.52667C6.58664 9.83786 6.78113 10.0712 7.05342 10.2268C7.20901 10.3046 7.4035 10.3824 7.598 10.3824C7.71469 10.3824 7.83138 10.3824 7.90918 10.3435C8.22037 10.2657 8.45375 10.0712 8.60935 9.79896C8.92053 9.25439 8.72604 8.55422 8.14257 8.24304ZM7.94808 9.33218C7.83138 9.52667 7.63689 9.56557 7.4424 9.48778C7.36461 9.44888 7.28681 9.37108 7.24791 9.25439C7.20901 9.13769 7.24791 9.0599 7.28681 8.9821C7.32571 8.9043 7.4035 8.82651 7.5202 8.78761C7.5202 8.82651 7.5591 8.78761 7.598 8.78761C7.67579 8.78761 7.71469 8.78761 7.79249 8.82651C7.98698 8.9432 8.02587 9.13769 7.94808 9.33218Z" fill="#A4ACAD"/>
<path d="M4.83622 8.78761L4.36944 7.81515C4.29165 7.62066 4.05826 7.54287 3.86377 7.62066C3.66928 7.69846 3.59148 7.93185 3.66928 8.12634L4.13606 9.09879C4.21385 9.25439 4.33055 9.33218 4.48614 9.33218C4.52504 9.33218 4.60283 9.33218 4.64173 9.29328C4.83622 9.21549 4.91402 8.9821 4.83622 8.78761Z" fill="#A4ACAD"/>
<path d="M15.1053 5.63685L14.6386 4.6644C14.5608 4.46991 14.3274 4.39211 14.1329 4.46991C13.9384 4.5477 13.8606 4.78109 13.9384 4.97558L14.4052 5.94804C14.483 6.10363 14.5997 6.18143 14.7553 6.18143C14.7942 6.18143 14.872 6.18143 14.9109 6.14253C15.1053 6.06473 15.222 5.83134 15.1053 5.63685Z" fill="#A4ACAD"/>
<path d="M21.9514 10.4991L21.4846 9.52667C21.4069 9.33218 21.1735 9.25438 20.979 9.33218C20.7845 9.40998 20.7067 9.64337 20.7845 9.83786L21.2513 10.8103C21.3291 10.9659 21.4458 11.0437 21.6013 11.0437C21.6402 11.0437 21.718 11.0437 21.7569 11.0048C21.9514 10.927 22.0292 10.6936 21.9514 10.4991Z" fill="#A4ACAD"/>
<path d="M12.6159 23.1799L12.1491 22.2075C12.0713 22.013 11.8379 21.9352 11.6434 22.013C11.4489 22.0908 11.3711 22.3242 11.4489 22.5187L11.9157 23.4911C11.9935 23.6467 12.1102 23.7245 12.2658 23.7245C12.3047 23.7245 12.3825 23.7245 12.4214 23.6856C12.6159 23.6078 12.6937 23.3744 12.6159 23.1799Z" fill="#A4ACAD"/>
<path d="M20.59 22.3242L19.5008 22.1297C19.3063 22.0908 19.073 22.2464 19.0341 22.4409C18.9952 22.6354 19.1508 22.8688 19.3452 22.9077L20.4344 23.1021C20.4733 23.1021 20.4733 23.1021 20.5122 23.1021C20.7067 23.1021 20.8623 22.9854 20.9012 22.791C20.979 22.5576 20.8234 22.3631 20.59 22.3242Z" fill="#A4ACAD"/>
<path d="M22.3793 15.0502L21.2901 14.8557C21.0957 14.8168 20.8623 14.9724 20.8234 15.1669C20.7845 15.3614 20.9401 15.5948 21.1346 15.6337L22.2237 15.8282C22.2626 15.8282 22.2626 15.8282 22.3015 15.8282C22.496 15.8282 22.6516 15.7115 22.6905 15.517C22.7294 15.3225 22.5738 15.0891 22.3793 15.0502Z" fill="#A4ACAD"/>
<path d="M25.0633 8.98209L23.9741 8.7876C23.7796 8.7487 23.5462 8.9043 23.5073 9.09879C23.4684 9.33218 23.624 9.52667 23.8185 9.56557L24.9077 9.76006C24.9466 9.76006 24.9466 9.76006 24.9855 9.76006C25.18 9.76006 25.3356 9.64336 25.3745 9.44887C25.4134 9.25438 25.2578 9.02099 25.0633 8.98209Z" fill="#A4ACAD"/>
<path d="M15.1053 19.7958L14.6386 18.8233C14.5608 18.6288 14.3274 18.551 14.1329 18.6288C13.9384 18.7066 13.8606 18.94 13.9384 19.1345L14.4052 20.107C14.483 20.2626 14.5997 20.3404 14.7553 20.3404C14.7942 20.3404 14.872 20.3404 14.9109 20.3015C15.1053 20.2237 15.1831 19.9903 15.1053 19.7958Z" fill="#A4ACAD"/>
<path d="M9.07612 19.2901C8.95943 19.1345 8.68714 19.0956 8.53155 19.2512L7.67579 19.9514C7.5202 20.0681 7.4813 20.3404 7.63689 20.496C7.71469 20.5738 7.83138 20.6516 7.94808 20.6516C8.02587 20.6516 8.10367 20.6127 8.18147 20.5738L9.03723 19.8736C9.19282 19.718 9.23172 19.4846 9.07612 19.2901Z" fill="#A4ACAD"/>
<path d="M19.812 11.0826C19.6953 10.927 19.423 10.8881 19.2675 11.0437L18.4117 11.705C18.2561 11.8606 18.2172 12.094 18.3728 12.2496C18.4506 12.3273 18.5673 12.4051 18.684 12.4051C18.7618 12.4051 18.8396 12.3662 18.9174 12.3273L19.7731 11.6272C19.9287 11.5105 19.9676 11.2382 19.812 11.0826Z" fill="#A4ACAD"/>
<path d="M23.274 20.4571C23.1573 20.3015 22.885 20.2626 22.7294 20.4182L21.8736 21.1183C21.718 21.235 21.6791 21.5073 21.8347 21.6629C21.9125 21.7407 22.0292 21.7796 22.1459 21.7796C22.2237 21.7796 22.3015 21.7407 22.3793 21.7018L23.2351 21.0016C23.3907 20.8849 23.4295 20.6127 23.274 20.4571Z" fill="#A4ACAD"/>
</svg>
