<svg width="28" height="30" viewBox="0 0 28 30" fill="none" xmlns="http://www.w3.org/2000/svg">
<path d="M26.65 15.3779C26.5326 15.1377 26.5326 14.8622 26.65 14.622L27.7383 12.3956C28.3443 11.1559 27.8642 9.67838 26.6453 9.03168L24.4562 7.87016C24.22 7.74489 24.0581 7.52193 24.0119 7.25868L23.5838 4.81773C23.3454 3.45867 22.0882 2.54541 20.7223 2.73867L18.2685 3.08576C18.0037 3.12315 17.7418 3.038 17.5497 2.85215L15.7686 1.12913C14.7769 0.169712 13.2232 0.169655 12.2316 1.12913L10.4504 2.85232C10.2582 3.03823 9.99634 3.12321 9.73155 3.08593L7.27783 2.73885C5.91142 2.54547 4.65472 3.45884 4.41632 4.8179L3.98819 7.25874C3.94197 7.52205 3.78005 7.74495 3.54393 7.87027L1.35483 9.03179C0.135971 9.67844 -0.344139 11.1561 0.261812 12.3958L1.35009 14.6221C1.4675 14.8624 1.4675 15.1379 1.35009 15.378L0.261755 17.6044C-0.344196 18.8441 0.135914 20.3216 1.35477 20.9683L3.54387 22.1298C3.78005 22.2551 3.94197 22.4781 3.98819 22.7413L4.41632 25.1823C4.63335 26.4195 5.69422 27.2871 6.91347 27.287C7.03356 27.287 7.15541 27.2786 7.27789 27.2613L9.73161 26.9142C9.99623 26.8766 10.2583 26.9619 10.4505 27.1478L12.2316 28.8708C12.7275 29.3506 13.3637 29.5904 14.0001 29.5903C14.6363 29.5903 15.2728 29.3505 15.7685 28.8708L17.5497 27.1478C17.7419 26.9619 18.0038 26.877 18.2685 26.9142L20.7223 27.2613C22.0888 27.4546 23.3454 26.5413 23.5838 25.1822L24.012 22.7414C24.0582 22.4781 24.2201 22.2552 24.4562 22.1298L26.6453 20.9683C27.8642 20.3217 28.3443 18.844 27.7383 17.6043L26.65 15.3779ZM25.8565 19.4815L23.6674 20.643C22.9694 21.0134 22.4908 21.6722 22.3543 22.4505L21.9261 24.8914C21.8455 25.3512 21.4204 25.66 20.958 25.5948L18.5043 25.2477C17.7218 25.1368 16.9474 25.3887 16.3795 25.938L14.5984 27.661C14.2629 27.9855 13.7373 27.9855 13.4017 27.661L11.6206 25.938C11.1406 25.4737 10.5131 25.222 9.85802 25.222C9.73799 25.222 9.617 25.2305 9.49583 25.2476L7.04211 25.5947C6.58012 25.66 6.15467 25.3511 6.07397 24.8913L5.64578 22.4504C5.50922 21.6721 5.03059 21.0133 4.3326 20.643L2.1435 19.4815C1.73109 19.2627 1.56866 18.7628 1.77367 18.3434L2.86201 16.1169C3.20898 15.407 3.20898 14.5928 2.86201 13.8829L1.77367 11.6565C1.56866 11.2371 1.73109 10.7372 2.1435 10.5184L4.3326 9.35688C5.03054 8.98648 5.50922 8.32776 5.64572 7.54946L6.07385 5.10856C6.15455 4.64874 6.57961 4.33984 7.04199 4.40515L9.49572 4.75224C10.2779 4.86298 11.0525 4.61124 11.6205 4.06188L13.4016 2.33887C13.7371 2.01435 14.2627 2.01435 14.5983 2.33887L16.3794 4.06188C16.9473 4.6113 17.7218 4.86298 18.5042 4.75224L20.9579 4.40515C21.4199 4.33978 21.8454 4.64874 21.926 5.10856L22.3542 7.54952C22.4907 8.32781 22.9693 8.9866 23.6673 9.35688L25.8564 10.5184C26.2688 10.7372 26.4313 11.2371 26.2263 11.6565L25.1379 13.8829C24.7909 14.5927 24.7909 15.407 25.1379 16.1169L26.2263 18.3433C26.4313 18.7628 26.2689 19.2627 25.8565 19.4815Z" fill="#A4ACAD"/>
</svg>
