<svg width="50" height="50" viewBox="0 0 50 50" fill="none" xmlns="http://www.w3.org/2000/svg">
<g clip-path="url(#clip0_77_147)">
<path d="M-0.216677 0.0267644C-4.76142 4.74649 -3.83126 9.76014 -3.83126 24.9914C-3.83126 37.64 -6.03857 50.3199 5.51365 53.3049C9.121 54.2325 41.0836 54.2325 44.6861 53.3001C49.4959 52.0593 53.4093 48.1588 53.9443 41.3575C54.019 40.4082 54.019 9.59149 53.9419 8.62297C53.3732 1.37835 48.9128 -2.79688 43.0354 -3.64252C41.6884 -3.83767 41.4185 -3.8955 34.5074 -3.90754C9.99332 -3.8955 4.61964 -4.98689 -0.216677 0.0267644Z" fill="url(#paint0_linear_77_147)"/>
<rect width="51" height="50" rx="25" fill="white" fill-opacity="0.85"/>
<path d="M25.0004 8.01639C18.0372 8.01639 11.425 7.39746 8.89941 13.8742C7.85618 16.5492 8.00767 20.0232 8.00767 24.9976C8.00767 29.3627 7.86768 33.4652 8.89941 36.1191C11.4193 42.5997 18.0852 41.9788 24.9966 41.9788C31.6644 41.9788 38.5394 42.6725 41.0957 36.1191C42.1408 33.4173 41.9874 29.995 41.9874 24.9976C41.9874 18.3638 42.3537 14.0811 39.1339 10.8658C35.8738 7.60824 31.465 8.01639 24.9928 8.01639H25.0004ZM23.4778 11.0765C38.0024 11.0535 39.8511 9.44011 38.8309 31.8537C38.4684 39.781 32.4277 38.911 25.0023 38.911C11.4634 38.911 11.0741 38.5239 11.0741 24.9899C11.0741 11.2988 12.148 11.0842 23.4778 11.0727V11.0765ZM34.0711 13.8952C32.9455 13.8952 32.0326 14.8073 32.0326 15.9321C32.0326 17.0569 32.9455 17.969 34.0711 17.969C35.1968 17.969 36.1097 17.0569 36.1097 15.9321C36.1097 14.8073 35.1968 13.8952 34.0711 13.8952ZM25.0004 16.2771C20.1812 16.2771 16.2749 20.1822 16.2749 24.9976C16.2749 29.813 20.1812 33.7162 25.0004 33.7162C29.8196 33.7162 33.724 29.813 33.724 24.9976C33.724 20.1822 29.8196 16.2771 25.0004 16.2771ZM25.0004 19.3372C32.489 19.3372 32.4986 30.658 25.0004 30.658C17.5137 30.658 17.5022 19.3372 25.0004 19.3372Z" fill="white"/>
</g>
<defs>
<linearGradient id="paint0_linear_77_147" x1="-0.105782" y1="50.2213" x2="53.6352" y2="3.70001" gradientUnits="userSpaceOnUse">
<stop stop-color="#FFDD55"/>
<stop offset="0.5" stop-color="#FF543E"/>
<stop offset="1" stop-color="#C837AB"/>
</linearGradient>
<clipPath id="clip0_77_147">
<rect width="50" height="50" rx="25" fill="white"/>
</clipPath>
</defs>
</svg>
