<svg width="50" height="50" viewBox="0 0 50 50" fill="none" xmlns="http://www.w3.org/2000/svg">
<path d="M0 25C0 38.8071 11.1929 50 25 50C38.8071 50 50 38.8071 50 25C50 11.1929 38.8071 0 25 0C11.1929 0 0 11.1929 0 25Z" fill="#61A8DE"/>
<path d="M38.2122 10.1202L4.77659 23.1497C3.69361 23.5718 3.75921 25.1259 4.87402 25.455L13.3704 27.964L16.5412 38.0254C16.8724 39.0764 18.2042 39.395 18.9752 38.6078L23.368 34.1224L31.9872 40.4491C33.042 41.2233 34.5442 40.6481 34.812 39.3674L40.5205 12.075C40.8 10.7381 39.4848 9.62433 38.2122 10.1202ZM34.0203 16.1771L18.4896 29.9109C18.3348 30.0478 18.2363 30.2373 18.2132 30.4426L17.6153 35.7581C17.5958 35.9314 17.3532 35.9543 17.3014 35.7878L14.8413 27.8606C14.7286 27.4977 14.8755 27.1045 15.1984 26.9043L33.5385 15.5296C33.9603 15.2678 34.3921 15.8484 34.0203 16.1771Z" fill="white"/>
</svg>
