<svg width="30" height="28" viewBox="0 0 30 28" fill="none" xmlns="http://www.w3.org/2000/svg">
<path d="M28.8824 0.173473C28.297 -0.186741 27.5316 0.038393 27.1714 0.623742L21.0027 11.4302H0.920735C0.650574 11.4302 0.470467 11.6103 0.470467 11.8804V13.1862C0.470467 17.869 2.90192 22.1466 6.9093 24.488C6.59411 24.7581 6.41401 25.1634 6.41401 25.6136V27.5498C6.41401 27.8199 6.59411 28 6.86428 28H20.3273C20.5975 28 20.7776 27.8199 20.7776 27.5498V25.6136C20.7776 25.1634 20.5975 24.7581 20.2823 24.488C24.2897 22.1466 26.7211 17.914 26.7211 13.1862V11.8804C26.7211 11.6103 26.541 11.4302 26.2708 11.4302H23.8844L29.3777 1.88449C29.6929 1.29914 29.5128 0.533688 28.8824 0.173473ZM25.7755 12.3307V13.1862C25.7755 17.914 23.119 22.1015 18.8864 24.1728C18.7063 24.2628 18.6163 24.488 18.6613 24.6681C18.7063 24.8932 18.8864 25.0283 19.1116 25.0283H19.2917C19.6069 25.0283 19.832 25.2984 19.832 25.5686V27.0545H7.31454V25.5686C7.31454 25.2534 7.5847 25.0283 7.85487 25.0283H8.03497C8.26011 25.0283 8.44021 24.8932 8.48524 24.6681C8.53027 24.4429 8.44021 24.2628 8.26011 24.1728C4.02759 22.1015 1.371 17.914 1.371 13.1862V12.3307H25.7755ZM28.5672 1.43422L22.8038 11.4302H22.0383L27.9819 1.11904C28.0719 0.938929 28.297 0.893902 28.4321 0.983956C28.6122 1.07401 28.6573 1.25412 28.5672 1.43422Z" fill="#A4ACAD"/>
</svg>
