<svg width="30" height="24" viewBox="0 0 30 24" fill="none" xmlns="http://www.w3.org/2000/svg">
<path d="M22.6949 6.36479V4.03849C22.6949 4.03739 22.6946 4.03646 22.6946 4.03536C22.6918 1.77232 19.3129 6.10352e-05 15 6.10352e-05C10.6852 6.10352e-05 7.3053 1.77385 7.3053 4.03824C7.3053 4.03833 7.3053 4.03841 7.3053 4.03849V4.03858V6.36488C3.16358 6.46003 -0.030365 8.19735 -0.030365 10.3986V19.9618C-0.030365 22.2262 3.34947 24 7.66428 24C11.1482 24 14.0221 22.8434 15 21.2061C15.9778 22.8434 18.8517 24 22.3357 24C26.6505 24 30.0304 22.2263 30.0304 19.9618V10.3986C30.0304 8.19744 26.8366 6.46011 22.6949 6.36479ZM29.2671 10.3986C29.2671 12.1738 26.0928 13.6735 22.3357 13.6735C18.5786 13.6735 15.4042 12.1738 15.4042 10.3986C15.4042 8.62333 18.5785 7.12363 22.3356 7.12363C26.0928 7.12363 29.2671 8.62342 29.2671 10.3986ZM21.2853 6.39634C21.5299 6.21528 21.7462 6.0226 21.9317 5.82017V6.36564C21.7134 6.37132 21.4979 6.38175 21.2853 6.39634ZM15 9.15438C14.7587 8.75045 14.4024 8.3757 13.9496 8.04038C14.2925 8.06395 14.6429 8.07633 15 8.07633C15.357 8.07633 15.7074 8.06395 16.0503 8.04038C15.5975 8.37561 15.2411 8.75037 15 9.15438ZM15 0.763225C18.7572 0.763225 21.9314 2.26292 21.9314 4.03816C21.9314 5.81339 18.7572 7.31309 15 7.31309C11.2427 7.31309 8.06855 5.81339 8.06855 4.03816C8.06855 2.26292 11.2427 0.763225 15 0.763225ZM8.7146 6.39634C8.50208 6.38175 8.28676 6.37124 8.06855 6.36564V5.82043C8.25394 6.02286 8.47019 6.21537 8.7146 6.39634ZM7.66428 7.12363C11.4215 7.12363 14.5957 8.62333 14.5957 10.3986C14.5957 12.1738 11.4215 13.6735 7.66428 13.6735C3.90707 13.6735 0.732884 12.1738 0.732884 10.3986C0.732884 8.62333 3.90707 7.12363 7.66428 7.12363ZM7.66428 23.2367C3.90707 23.2367 0.732884 21.737 0.732884 19.9618V12.1809C1.96672 13.5279 4.57584 14.4367 7.66428 14.4367C10.7527 14.4367 13.3619 13.5279 14.5957 12.1808V19.9618C14.5957 21.737 11.4215 23.2367 7.66428 23.2367ZM29.2671 19.9618C29.2671 21.737 26.0928 23.2367 22.3357 23.2367C18.5786 23.2367 15.4042 21.737 15.4042 19.9618V12.1809C16.6381 13.5279 19.2472 14.4367 22.3356 14.4367C25.4241 14.4367 28.0332 13.5279 29.267 12.1809V19.9618H29.2671Z" fill="#A4ACAD"/>
</svg>
