<svg width="26" height="26" viewBox="0 0 26 26" fill="none" xmlns="http://www.w3.org/2000/svg">
<path d="M24.9539 1.05837C24.7593 0.980552 24.5259 1.05837 24.448 1.29184L22.1523 7.01168H21.6854L19.1562 3.15954C19.0784 3.04281 18.9617 2.96499 18.8449 2.96499H7.40524C7.28851 2.96499 7.17178 3.0039 7.09396 3.12063L4.21458 6.97277H3.86439L1.56867 1.25293C1.49085 1.05837 1.25738 0.941642 1.06283 1.01946C0.868279 1.09728 0.751548 1.33075 0.829369 1.5253L3.20291 7.4397L4.52587 25.2218C4.52587 25.2996 4.52587 25.3385 4.52587 25.3774V25.6498C4.52587 25.8444 4.72042 26 4.91497 26H21.1017C21.2963 26 21.4908 25.8444 21.4908 25.6498L22.7749 7.47861L25.1484 1.56421C25.2652 1.33075 25.1484 1.13619 24.9539 1.05837ZM7.5998 3.7432H18.6504L20.7515 7.01168H5.18735L7.5998 3.7432ZM21.7243 7.78989L13.0084 16.8171L4.25349 7.78989H21.7243ZM4.05894 8.72374L12.4247 17.4008L5.22626 24.4047L4.05894 8.72374ZM5.49863 25.2218L12.9694 17.9455L20.2068 25.2218H5.49863ZM20.7905 24.7549L13.5531 17.3619L21.9578 8.64592L20.7905 24.7549Z" fill="#A4ACAD"/>
</svg>
