<svg width="30" height="18" viewBox="0 0 30 18" fill="none" xmlns="http://www.w3.org/2000/svg">
<path d="M29.2101 8.30296L26.8794 5.59074C26.5203 5.1729 26.1306 4.77175 25.7212 4.39844C25.5407 4.23398 25.2609 4.24689 25.0964 4.42733C24.9319 4.60777 24.9448 4.88756 25.1253 5.05208C25.4635 5.36047 25.786 5.68992 26.0884 6.03157C26.1698 8.16062 25.7457 10.2891 24.8572 12.2237L21.738 10.8179C21.6502 10.7784 21.5619 10.7398 21.4734 10.7018C22.0136 7.91579 21.717 5.01523 20.6337 2.40018C21.7078 2.76583 24.2797 4.49084 25.2254 5.13092C25.3014 5.18234 25.3875 5.20698 25.4729 5.20698C25.6147 5.20698 25.754 5.13888 25.8395 5.01257C25.9764 4.81026 25.9234 4.5353 25.7212 4.39844C23.8129 3.10683 20.0542 1.09885 17.763 0.887924C17.3884 0.38836 16.7916 0.0645752 16.1205 0.0645752H12.7842C12.0415 0.0645752 11.3898 0.461184 11.0295 1.05374C7.95898 1.61569 5.15725 3.2207 3.12054 5.59074L0.789833 8.30296C-0.105632 9.34508 -0.254581 10.8497 0.419229 12.0472C0.821852 12.7627 1.47308 13.2977 2.25303 13.5539C2.32066 13.5762 2.38883 13.5955 2.45729 13.6132C2.35268 14.5799 2.62912 15.5458 3.24455 16.318C3.95262 17.2065 5.01036 17.7162 6.14653 17.7162H11.863C12.1402 17.8561 12.4531 17.9354 12.7841 17.9354H16.1205C16.4516 17.9354 16.7644 17.8561 17.0416 17.7162H23.7944C24.9306 17.7162 25.9883 17.2065 26.6964 16.318C27.3087 15.5497 27.585 14.5898 27.4847 13.628C27.5727 13.607 27.6602 13.5824 27.7469 13.5539C28.5268 13.2977 29.1781 12.7627 29.5807 12.0472C30.2546 10.8498 30.1056 9.34502 29.2101 8.30296ZM19.5217 2.07675C20.7534 4.64869 21.1436 7.56694 20.6355 10.3709C19.8351 10.0806 19.0112 9.85496 18.1724 9.69646V2.11649C18.1724 2.01701 18.165 1.91931 18.1512 1.82355C18.6129 1.88346 19.0704 1.96737 19.5217 2.07675ZM10.7322 2.11649V6.38419C9.87987 5.14808 8.83605 4.04487 7.64858 3.12847C8.621 2.62891 9.6581 2.25341 10.7348 2.01554C10.7332 2.04897 10.7322 2.08264 10.7322 2.11649ZM1.19004 11.6135C0.698022 10.7391 0.806816 9.64038 1.4607 8.87942L2.71709 7.4174C3.21206 7.68717 3.69541 7.99073 4.15747 8.32336C4.23566 8.37962 5.48062 9.49208 5.57007 9.49208C5.70752 9.49208 5.91361 9.12 6 9C6.1427 8.80175 6.37691 8.99305 6.17872 8.85035C5.73842 8.5334 3.77537 6.99609 3.30587 6.73215L3.79129 6.16725C4.66187 5.15421 5.68217 4.291 6.80731 3.6015C8.42086 4.77576 9.77232 6.31184 10.7322 8.06474V9.94359C9.88571 10.1667 9.05617 10.46 8.26189 10.818L7.99595 10.9379C7.45965 10.1878 6.8497 9.48677 6.17872 8.85035C6.00153 8.68223 5.72161 8.6896 5.5535 8.86686C5.38545 9.04405 5.39282 9.32397 5.57007 9.49208C6.1572 10.049 6.69368 10.6591 7.1716 11.3094L4.25972 12.6217C3.12184 13.1347 1.80217 12.7012 1.19004 11.6135ZM3.93629 15.7668C3.46968 15.1812 3.25876 14.4496 3.33536 13.7166C3.7756 13.7087 4.21343 13.6128 4.62313 13.4281L8.62542 11.6243C9.30459 11.3181 10.0112 11.0628 10.7322 10.8608V14.6488H10.2895C10.0452 14.6488 9.8472 14.8467 9.8472 15.091C9.8472 15.3353 10.0452 15.5333 10.2895 15.5333H10.7322V15.8834C10.7322 16.2253 10.8168 16.5478 10.9653 16.8316H6.14653C5.28119 16.8317 4.47559 16.4436 3.93629 15.7668ZM26.0047 15.7668C25.4654 16.4436 24.6598 16.8317 23.7945 16.8317H17.9394C18.0722 16.5778 18.1539 16.2932 18.1696 15.9912C18.1761 15.9915 18.1825 15.9923 18.1891 15.9923H18.6808C18.925 15.9923 19.123 15.7943 19.123 15.55C19.123 15.3057 18.925 15.1078 18.6808 15.1078H18.1891C18.1835 15.1078 18.178 15.1084 18.1725 15.1086V12.4422C18.1725 12.198 17.9745 12 17.7303 12C17.486 12 17.288 12.198 17.288 12.4422V15.8835C17.288 16.5273 16.7643 17.0509 16.1206 17.0509H12.7843C12.1405 17.0509 11.6168 16.5273 11.6168 15.8835V2.11649C11.6168 1.47275 12.1405 0.949073 12.7843 0.949073H16.1206C16.7643 0.949073 17.288 1.47275 17.288 2.11649V12.3336C17.288 12.5779 17.486 12.7759 17.7303 12.7759C17.9745 12.7759 18.1725 12.5779 18.1725 12.3336V10.5972C19.2758 10.8184 20.3507 11.1629 21.3747 11.6244L25.377 13.4282C25.7685 13.6046 26.1854 13.7 26.6057 13.7151C26.6826 14.4486 26.4717 15.1808 26.0047 15.7668ZM28.8099 11.6135C28.1979 12.7012 26.8784 13.1348 25.7403 12.6218L25.6628 12.5869C26.46 10.8489 26.9054 8.96451 26.9728 7.05647L28.5393 8.87942C29.1932 9.64032 29.3019 10.7391 28.8099 11.6135Z" fill="#A4ACAD"/>
</svg>
