<svg width="28" height="28" viewBox="0 0 28 28" fill="none" xmlns="http://www.w3.org/2000/svg">
<path d="M26.0465 1.23186C24.4063 -0.408056 21.7474 -0.408056 20.1072 1.23186L6.3844 14.9547C4.99246 16.3508 4.75712 18.5264 5.81834 20.1879L0.41107 25.5956C0.0074999 25.9984 -0.113354 26.6048 0.104956 27.1316C0.323266 27.6584 0.837659 28.0015 1.40787 28.0008C1.78161 28.0021 2.14034 27.8539 2.4042 27.5892L7.81147 22.1815C9.47218 23.2466 11.6506 23.0109 13.0451 21.6154L26.7679 7.89259C28.4056 6.25132 28.4056 3.59413 26.7679 1.95286L26.0465 1.23186ZM1.74434 26.9275C1.55542 27.1061 1.25985 27.1061 1.07094 26.9275C0.88617 26.741 0.88617 26.4405 1.07094 26.2541L6.40774 20.9182L7.0816 21.5916L1.74434 26.9275ZM26.1081 7.23413L12.3853 20.9541C11.7726 21.5668 10.9417 21.911 10.0753 21.911C9.20884 21.911 8.3779 21.5668 7.76527 20.9541L7.04567 20.2345C5.77212 18.9578 5.77212 16.8912 7.04567 15.6145L20.7657 1.89173C22.0421 0.6174 24.1093 0.6174 25.3857 1.89173L26.1081 2.61413C27.3821 3.89061 27.3821 5.95764 26.1081 7.23413Z" fill="#A4ACAD"/>
</svg>
