<svg width="30" height="30" viewBox="0 0 30 30" fill="none" xmlns="http://www.w3.org/2000/svg">
<path d="M29.8169 28.9331L20.6888 19.805C22.5848 17.6999 23.75 14.9244 23.75 11.875C23.75 5.32717 18.4229 0 11.875 0C5.32717 0 0 5.32717 0 11.875C0 18.4229 5.32717 23.75 11.875 23.75C14.9244 23.75 17.6999 22.5848 19.805 20.6888L28.9331 29.8169C29.0552 29.9389 29.2151 30 29.375 30C29.5349 30 29.6948 29.9389 29.817 29.8169C30.0611 29.5727 30.0611 29.1772 29.8169 28.9331ZM11.875 22.5C6.01688 22.5 1.25004 17.7337 1.25004 11.875C1.25004 6.01629 6.01688 1.24998 11.875 1.24998C17.7332 1.24998 22.5 6.01623 22.5 11.875C22.5 17.7338 17.7332 22.5 11.875 22.5Z" fill="#A4ACAD"/>
</svg>
