<svg width="30" height="19" viewBox="0 0 30 19" fill="none" xmlns="http://www.w3.org/2000/svg">
<path d="M28.6652 3.03411C27.289 2.17522 25.9475 2.03881 24.7659 2.63245C24.4586 2.32771 23.8308 1.82704 22.9793 1.7649C22.2194 1.70933 21.4691 2.0115 20.7479 2.66245C20.6769 2.0286 20.3839 1.44034 19.9206 1.00192C19.3712 0.490873 18.6463 0.210621 17.896 0.219153C16.525 0.219153 15.3396 1.25138 15.0536 2.58298L11.7092 0.43026C11.6367 0.383682 11.5554 0.352493 11.4704 0.338627C11.3854 0.324761 11.2984 0.328514 11.2149 0.349653C11.1301 0.371542 11.0508 0.410615 10.9818 0.464446C10.9128 0.518277 10.8556 0.585717 10.8137 0.662579C10.7726 0.737987 10.7338 0.814451 10.6971 0.891971C9.6206 0.495152 8.27144 0.776409 7.47111 1.60966C7.13561 1.95419 6.89495 2.37964 6.77251 2.84468C6.65007 3.30972 6.65002 3.79852 6.77236 4.26359H6.56997C6.05096 2.38549 4.14771 1.39754 4.06663 1.35625C3.98946 1.31691 3.90065 1.30683 3.81663 1.32789C3.73261 1.34894 3.65905 1.3997 3.60956 1.47079C3.56006 1.54187 3.53798 1.62847 3.54738 1.71458C3.55679 1.80069 3.59705 1.88048 3.66072 1.9392C3.69102 1.98808 3.92005 2.43455 3.39889 3.95998C2.09484 3.23171 0.72596 2.99736 0.451156 2.95613C0.418643 2.94959 0.385549 2.94637 0.352385 2.94651C0.261972 2.94806 0.175483 2.98372 0.110247 3.04634C0.0450119 3.10896 0.00584835 3.19391 0.000603913 3.28419C-0.00464052 3.37446 0.0244215 3.46338 0.081967 3.53313C0.139513 3.60289 0.221291 3.64832 0.310916 3.66032C0.313187 3.66032 0.333084 3.66343 0.368458 3.66911C0.390328 3.69934 0.491728 3.8397 0.49854 3.84926C0.695426 4.12759 0.970588 4.74251 1.1621 6.09167C1.30873 7.1233 1.89861 7.99486 2.54436 8.55666C2.07279 8.65961 1.73172 8.94403 1.68595 9.30829C1.6622 9.49611 1.65022 9.68524 1.6501 9.87456C1.6501 11.929 3.01712 13.8451 5.49932 15.2699C6.68153 15.9484 8.05262 16.4776 9.54292 16.8418V18.145C9.54292 18.2401 9.58069 18.3313 9.64793 18.3985C9.71516 18.4658 9.80635 18.5035 9.90144 18.5035H19.1708C19.2659 18.5035 19.3571 18.4658 19.4244 18.3985C19.4916 18.3313 19.5294 18.2401 19.5294 18.145V16.8418C21.0197 16.4773 22.3908 15.9484 23.573 15.2698C26.0552 13.8451 27.4222 11.929 27.4222 9.87451C27.4221 9.68518 27.4102 9.49605 27.3864 9.30823C27.3723 9.2031 27.3343 9.1026 27.2752 9.01448C28.4337 8.58946 29.2703 7.60903 29.7145 6.68585C30.0208 6.05493 30.0831 5.33305 29.8894 4.65897C29.6958 3.98489 29.2597 3.40619 28.6652 3.03411ZM17.896 0.936188C18.9895 0.936188 19.843 1.63972 20.0177 2.62451C19.8137 2.62086 19.5845 2.62558 19.3404 2.6444C19.2007 2.3239 18.9545 2.06157 18.6435 1.90187C18.3325 1.74218 17.9758 1.69494 17.6339 1.76817C17.292 1.84141 16.986 2.0306 16.7677 2.30369C16.5494 2.57677 16.4322 2.91695 16.4361 3.26655C16.436 3.33806 16.44 3.40952 16.448 3.48059L15.7138 3.008C15.8115 1.8666 16.7709 0.936188 17.896 0.936188ZM18.5682 2.7516C18.0687 2.8482 17.5899 3.03135 17.1535 3.29278C17.1535 3.28388 17.1529 3.27557 17.1529 3.26625C17.1485 3.09974 17.1965 2.93603 17.2902 2.79832C17.3839 2.66062 17.5186 2.55588 17.6751 2.49896C17.8317 2.44203 18.0022 2.4358 18.1625 2.48114C18.3227 2.52648 18.4647 2.6211 18.5682 2.7516ZM11.4015 1.08485L16.2032 4.17557C16.0733 4.35872 15.9626 4.55468 15.8726 4.76037L12.6639 2.69334C12.5883 2.64418 12.5023 2.61351 12.4126 2.60383C12.323 2.59414 12.2324 2.60571 12.1481 2.63759C12.063 2.66967 11.9866 2.72106 11.9248 2.78771C11.863 2.85436 11.8176 2.93446 11.792 3.02168C11.5783 3.75425 11.771 4.69106 12.3205 5.5919C12.8349 6.43495 13.6346 7.20026 14.598 7.77933C14.4079 8.00776 14.2271 8.22831 14.1447 8.51429H13.9855C12.7171 7.5969 11.7538 6.32948 11.2688 4.93252C10.7875 3.5456 10.8353 2.18329 11.4015 1.08485ZM15.1192 6.78528C15.154 6.80735 15.1914 6.82492 15.2306 6.83756C15.1711 6.96281 15.1044 7.08451 15.0309 7.20206C13.1735 6.11455 12.2748 4.46824 12.4408 3.40213L15.6436 5.46552C15.6339 5.50878 15.6247 5.55246 15.6163 5.59697C15.5944 5.7125 15.5709 5.82182 15.5456 5.92496C15.4421 5.88676 15.3286 5.88535 15.2241 5.92096C15.1197 5.95657 15.0306 6.02704 14.972 6.12053C14.9045 6.22852 14.882 6.35873 14.9096 6.48309C14.9371 6.60746 15.0124 6.71602 15.1192 6.7854V6.78528ZM10.9056 5.92878C11.3767 6.90944 12.036 7.78791 12.846 8.51417H10.9056V5.92878ZM7.98839 2.10633C8.58633 1.48382 9.6292 1.26722 10.4392 1.5609C10.3856 1.73877 10.342 1.91951 10.3086 2.10227C10.112 2.03639 9.90593 2.00303 9.69858 2.00349C9.22392 2.00624 8.76973 2.19714 8.43563 2.53431C8.10153 2.87148 7.91479 3.32739 7.91638 3.80206C7.91707 3.95792 7.93775 4.11305 7.97793 4.26365H7.52381C7.38702 3.89725 7.35808 3.49934 7.44041 3.11701C7.52275 2.73467 7.71291 2.38394 7.98839 2.10633ZM10.3439 4.26341H8.73548C8.66961 4.11835 8.63485 3.96112 8.63342 3.80182C8.63157 3.51725 8.74268 3.24356 8.94237 3.04081C9.14205 2.83805 9.41401 2.72278 9.69858 2.72029C9.88214 2.71837 10.0634 2.76086 10.227 2.84416C10.2094 3.32027 10.2486 3.79678 10.3439 4.26359V4.26341ZM6.69061 4.98044H10.1885V8.51411H5.90522C5.94266 8.21467 5.9525 7.91243 5.93462 7.61119C6.49259 6.71346 6.74565 5.83186 6.69061 4.98062V4.98044ZM4.45161 2.47136C4.97744 2.88778 5.64249 3.56824 5.88568 4.47744C6.05646 5.11602 5.99599 5.79063 5.70899 6.49112C5.5831 6.13781 5.40825 5.80393 5.18956 5.49922C4.86596 5.05543 4.47125 4.66815 4.02139 4.35304C4.28938 3.60278 4.43369 2.97209 4.45161 2.47136ZM1.87208 5.99081C1.74576 5.10192 1.56704 4.39905 1.3389 3.89181C2.32638 4.17581 3.78579 4.7682 4.60619 5.91641C5.12867 6.64767 5.32096 7.52072 5.18161 8.51441H4.93448C4.49768 6.11449 3.13783 5.43433 3.07771 5.40547C3.03524 5.38486 2.98911 5.37284 2.94197 5.3701C2.89484 5.36737 2.84763 5.37397 2.80305 5.38953C2.75848 5.40509 2.71742 5.4293 2.68222 5.46078C2.64703 5.49225 2.6184 5.53036 2.59797 5.57293C2.57755 5.6155 2.56574 5.66168 2.56321 5.70883C2.56068 5.75597 2.56749 5.80315 2.58324 5.84766C2.599 5.89216 2.62339 5.93312 2.65502 5.96818C2.68664 6.00323 2.72488 6.0317 2.76754 6.05193C2.77865 6.05725 3.81375 6.57561 4.20525 8.51441H3.91312C3.31953 8.44791 2.0762 7.42589 1.8722 5.99069L1.87208 5.99081ZM18.8123 17.7865H10.2603V17.0026C13.0833 17.5637 15.9892 17.5637 18.8123 17.0026V17.7865ZM26.6821 10.2875H8.72681C8.63173 10.2875 8.54054 10.3253 8.4733 10.3925C8.40607 10.4598 8.3683 10.551 8.3683 10.646C8.3683 10.7411 8.40607 10.8323 8.4733 10.8995C8.54054 10.9668 8.63173 11.0046 8.72681 11.0046H26.5371C26.1288 12.3674 24.9852 13.6325 23.2161 14.6479C20.9037 15.9753 17.8209 16.7064 14.5363 16.7064C11.2518 16.7064 8.16926 15.9754 5.85658 14.648C4.08748 13.6325 2.94381 12.3675 2.53552 11.0046H6.21719C6.31228 11.0046 6.40347 10.9668 6.4707 10.8996C6.53794 10.8324 6.57571 10.7412 6.57571 10.6461C6.57571 10.551 6.53794 10.4598 6.4707 10.3926C6.40347 10.3253 6.31228 10.2876 6.21719 10.2876H2.3905C2.35771 9.99407 2.35971 9.69771 2.39647 9.40467C2.42575 9.35268 2.6209 9.23139 2.94022 9.23139H26.1323C26.4516 9.23139 26.6466 9.35274 26.676 9.40467C26.6955 9.56053 26.7052 9.71744 26.7053 9.87451C26.705 10.0125 26.6973 10.1504 26.6821 10.2875ZM16.1257 8.51429C16.695 8.2981 17.3349 8.09919 18.0127 7.91742C18.0247 7.92937 18.0366 7.9409 18.049 7.95208C18.3086 8.16744 18.5895 8.35581 18.8873 8.51429H16.1257ZM29.0682 6.37514C28.5822 7.38526 27.554 8.47742 26.1255 8.51429H20.6805C20.0565 8.31458 19.4597 8.03854 18.9034 7.69245C20.0645 7.41651 21.2875 7.18658 22.4207 7.00075C22.4368 7.02118 22.4535 7.0412 22.4718 7.0605C22.9231 7.53147 23.8207 8.30569 24.8428 8.30557C24.8726 8.30557 24.9032 8.30492 24.9334 8.30354C24.9808 8.30193 25.0274 8.29093 25.0705 8.27119C25.1136 8.25144 25.1524 8.22334 25.1846 8.18851C25.2168 8.15368 25.2417 8.11281 25.258 8.06827C25.2742 8.02373 25.2815 7.97641 25.2794 7.92904C25.2772 7.88167 25.2657 7.83519 25.2455 7.7923C25.2253 7.74941 25.1967 7.71096 25.1615 7.67918C25.1264 7.64739 25.0852 7.62291 25.0405 7.60713C24.9958 7.59136 24.9484 7.58461 24.901 7.58728C24.2956 7.61363 23.694 7.20349 23.302 6.86224C25.3557 6.55153 26.9332 6.40065 26.9709 6.39712C27.0655 6.38827 27.1528 6.34216 27.2135 6.26895C27.2742 6.19575 27.3033 6.10143 27.2944 6.00676C27.2856 5.91209 27.2395 5.82481 27.1663 5.76413C27.0931 5.70345 26.9987 5.67434 26.9041 5.6832C26.7492 5.69772 25.1682 5.84895 23.1318 6.15787C23.4022 5.66742 23.9368 4.98218 24.8612 4.82975C24.9546 4.81383 25.0379 4.76159 25.0929 4.68444C25.1479 4.60728 25.1701 4.51149 25.1547 4.418C25.1393 4.32451 25.0875 4.24092 25.0106 4.18551C24.9338 4.13009 24.8381 4.10736 24.7445 4.12227C23.2334 4.37144 22.5413 5.66079 22.3139 6.20359C22.302 6.23243 22.2918 6.26194 22.2834 6.29196C21.0992 6.48658 19.8164 6.73013 18.598 7.02644C18.7989 6.45437 19.2394 5.5864 20.1183 5.28853C20.1634 5.27376 20.205 5.25021 20.2409 5.21925C20.2767 5.18829 20.3061 5.15052 20.3273 5.10814C20.3484 5.06576 20.361 5.01961 20.3642 4.97234C20.3675 4.92507 20.3613 4.87763 20.3461 4.83276C20.3309 4.78789 20.3069 4.74649 20.2756 4.71093C20.2443 4.67538 20.2063 4.64638 20.1637 4.62562C20.1211 4.60486 20.0748 4.59274 20.0275 4.58998C19.9802 4.58721 19.9328 4.59384 19.8881 4.6095C18.4973 5.08095 17.9705 6.54597 17.8087 7.1539C17.8019 7.18011 17.7964 7.20665 17.7922 7.23343C16.8619 7.48546 15.995 7.77078 15.2707 8.09094C15.6192 7.66174 16.0773 7.01037 16.3204 5.7313C16.5541 4.50278 17.3566 3.73705 18.7055 3.45549C19.3942 3.32313 20.1001 3.30611 20.7943 3.40512C20.8501 3.41488 20.9074 3.41128 20.9616 3.39459C21.0157 3.37791 21.0651 3.34863 21.1057 3.30915C21.7149 2.7176 22.3258 2.43873 22.9206 2.47984C23.805 2.54115 24.4018 3.29493 24.4069 3.30157C24.4607 3.37165 24.5384 3.41943 24.6253 3.43573C24.7121 3.45203 24.8018 3.4357 24.8774 3.38988C25.8877 2.77688 27.0344 2.8619 28.2853 3.64264C28.7298 3.92133 29.0556 4.35446 29.2002 4.8588C29.3447 5.36314 29.2978 5.90311 29.0684 6.37496L29.0682 6.37514Z" fill="#A4ACAD"/>
</svg>
